<?xml version="1.0"?>
<svg fill='#4b6cc1' xmlns="http://www.w3.org/2000/svg" width="512" height="512" viewBox="0 0 128 128"><g><path d="M121.5,57.38h-27v-10.3h9.117a1.75,1.75,0,0,0,1.225-3L65.225,5.25a1.752,1.752,0,0,0-2.45,0L23.158,44.083a1.75,1.75,0,0,0,1.225,3H33.5v10.3H6.5a1.749,1.749,0,0,0-1.75,1.75V121.5a1.749,1.749,0,0,0,1.75,1.75h115a1.749,1.749,0,0,0,1.75-1.75V59.13A1.749,1.749,0,0,0,121.5,57.38ZM64,8.95,99.332,43.583H92.779c-.01,0-.019,0-.029,0s-.019,0-.029,0H35.279c-.01,0-.019,0-.029,0s-.019,0-.029,0H28.668ZM8.25,60.88H33.5v58.87H8.25Zm37.667,58.87v-2.5H82.083v2.5Zm25.953-12H56.13V88H71.87Zm5.76,3.5v2.5H50.37v-2.5Zm7.953,8.5V115.5a1.749,1.749,0,0,0-1.75-1.75h-2.7V109.5a1.749,1.749,0,0,0-1.75-1.75H75.37V86.25a1.749,1.749,0,0,0-1.75-1.75H54.38a1.749,1.749,0,0,0-1.75,1.75v21.5H48.62a1.749,1.749,0,0,0-1.75,1.75v4.25h-2.7a1.749,1.749,0,0,0-1.75,1.75v4.25H37V47.083H91V119.75Zm34.167,0H94.5V60.88h25.25Z"/><path d="M81.477,74.808H46.524a1.75,1.75,0,0,0,0,3.5H81.477a1.75,1.75,0,0,0,0-3.5Z"/><path d="M46.628,67.627h6.865a1.749,1.749,0,0,0,1.75-1.75v-6.75a1.749,1.749,0,0,0-1.75-1.75H46.628a1.749,1.749,0,0,0-1.75,1.75v6.75A1.749,1.749,0,0,0,46.628,67.627Zm1.75-6.75h3.365v3.25H48.378Z"/><path d="M60.567,67.627h6.866a1.75,1.75,0,0,0,1.75-1.75v-6.75a1.75,1.75,0,0,0-1.75-1.75H60.567a1.75,1.75,0,0,0-1.75,1.75v6.75A1.75,1.75,0,0,0,60.567,67.627Zm1.75-6.75h3.366v3.25H62.317Z"/><path d="M74.507,67.627h6.865a1.749,1.749,0,0,0,1.75-1.75v-6.75a1.749,1.749,0,0,0-1.75-1.75H74.507a1.749,1.749,0,0,0-1.75,1.75v6.75A1.749,1.749,0,0,0,74.507,67.627Zm1.75-6.75h3.365v3.25H76.257Z"/><path d="M24.25,67.341H17.5a1.749,1.749,0,0,0-1.75,1.75v6.865a1.749,1.749,0,0,0,1.75,1.75h6.75A1.749,1.749,0,0,0,26,75.956V69.091A1.749,1.749,0,0,0,24.25,67.341ZM22.5,74.206H19.25V70.841H22.5Z"/><path d="M24.25,81.28H17.5a1.749,1.749,0,0,0-1.75,1.75V89.9a1.75,1.75,0,0,0,1.75,1.75h6.75A1.75,1.75,0,0,0,26,89.9V83.03A1.749,1.749,0,0,0,24.25,81.28ZM22.5,88.146H19.25V84.78H22.5Z"/><path d="M24.25,95.22H17.5a1.749,1.749,0,0,0-1.75,1.75v6.865a1.749,1.749,0,0,0,1.75,1.75h6.75a1.749,1.749,0,0,0,1.75-1.75V96.97A1.749,1.749,0,0,0,24.25,95.22Zm-1.75,6.865H19.25V98.72H22.5Z"/><path d="M103.75,77.706h6.75a1.749,1.749,0,0,0,1.75-1.75V69.091a1.749,1.749,0,0,0-1.75-1.75h-6.75a1.749,1.749,0,0,0-1.75,1.75v6.865A1.749,1.749,0,0,0,103.75,77.706Zm1.75-6.865h3.25v3.365H105.5Z"/><path d="M103.75,91.646h6.75a1.75,1.75,0,0,0,1.75-1.75V83.03a1.749,1.749,0,0,0-1.75-1.75h-6.75A1.749,1.749,0,0,0,102,83.03V89.9A1.75,1.75,0,0,0,103.75,91.646Zm1.75-6.866h3.25v3.366H105.5Z"/><path d="M103.75,105.585h6.75a1.749,1.749,0,0,0,1.75-1.75V96.97a1.749,1.749,0,0,0-1.75-1.75h-6.75A1.749,1.749,0,0,0,102,96.97v6.865A1.749,1.749,0,0,0,103.75,105.585Zm1.75-6.865h3.25v3.365H105.5Z"/><path d="M64,40.885a10.6,10.6,0,1,0-10.6-10.6A10.608,10.608,0,0,0,64,40.885Zm0-17.693a7.1,7.1,0,1,1-7.1,7.1A7.1,7.1,0,0,1,64,23.192Z"/><path d="M64,32.038h2.156a1.75,1.75,0,1,0,0-3.5H65.75V26.333a1.75,1.75,0,0,0-3.5,0v3.955A1.749,1.749,0,0,0,64,32.038Z"/></g></svg>
