<svg fill='#4b6cc1' id="_x31_px" enable-background="new 0 0 24 24" height="512" viewBox="0 0 24 24" width="512" xmlns="http://www.w3.org/2000/svg"><path d="m17 10c-1.431 0-2.861-.424-4.283-1.271-.442-.264-.717-.756-.717-1.286v-2.943c0-.276.224-.5.5-.5s.5.224.5.5v2.943c0 .176.09.343.229.426 2.538 1.514 5.004 1.514 7.541 0 .14-.083.23-.25.23-.426v-2.943c0-.276.224-.5.5-.5s.5.224.5.5v2.943c0 .529-.275 1.021-.718 1.285-1.421.848-2.851 1.272-4.282 1.272z"/><path d="m17 7c-.071 0-.143-.016-.209-.046l-6.5-3c-.178-.082-.291-.259-.291-.454s.113-.372.291-.454l6.5-3c.133-.061.286-.061.419 0l6.5 3c.177.082.29.259.29.454s-.113.372-.291.454l-6.5 3c-.066.03-.138.046-.209.046zm-5.307-3.5 5.307 2.449 5.307-2.449-5.307-2.449z"/><path d="m5.5 24h-4c-.827 0-1.5-.673-1.5-1.5v-15c0-.827.673-1.5 1.5-1.5h4c.827 0 1.5.673 1.5 1.5v15c0 .827-.673 1.5-1.5 1.5zm-4-17c-.276 0-.5.225-.5.5v15c0 .275.224.5.5.5h4c.276 0 .5-.225.5-.5v-15c0-.275-.224-.5-.5-.5z"/><path d="m11.5 24h-4c-.827 0-1.5-.673-1.5-1.5v-21c0-.827.673-1.5 1.5-1.5h2c.276 0 .5.224.5.5s-.224.5-.5.5h-2c-.276 0-.5.225-.5.5v21c0 .275.224.5.5.5h4c.276 0 .5-.225.5-.5v-11c0-.276.224-.5.5-.5s.5.224.5.5v11c0 .827-.673 1.5-1.5 1.5z"/><path d="m17.5 24h-4c-.827 0-1.5-.673-1.5-1.5v-7c0-.276.224-.5.5-.5s.5.224.5.5v7c0 .275.224.5.5.5h4c.276 0 .5-.225.5-.5v-10c0-.276.224-.5.5-.5s.5.224.5.5v10c0 .827-.673 1.5-1.5 1.5z"/><path d="m6.5 20h-6c-.276 0-.5-.224-.5-.5s.224-.5.5-.5h6c.276 0 .5.224.5.5s-.224.5-.5.5z"/><path d="m6.5 17h-6c-.276 0-.5-.224-.5-.5s.224-.5.5-.5h6c.276 0 .5.224.5.5s-.224.5-.5.5z"/><path d="m18.5 17h-6c-.276 0-.5-.224-.5-.5s.224-.5.5-.5h6c.276 0 .5.224.5.5s-.224.5-.5.5z"/><path d="m9.5 20c-.276 0-.5-.224-.5-.5v-16c0-.276.224-.5.5-.5s.5.224.5.5v16c0 .276-.224.5-.5.5z"/><path d="m18.5 20h-6c-.276 0-.5-.224-.5-.5s.224-.5.5-.5h6c.276 0 .5.224.5.5s-.224.5-.5.5z"/></svg>